<svg width="112" height="112" viewBox="0 0 112 112" fill="none" xmlns="http://www.w3.org/2000/svg">
<path d="M111.84 55.745C110.588 129.036 1.569 129.024 0.328003 55.745C1.58 -17.544 110.599 -17.532 111.84 55.745Z" fill="#1A428A"/>
<path d="M86.573 9.08496C86.573 9.08496 91.978 12.485 94.658 15.485L47.779 111.36C47.779 111.36 23.168 108.247 8.75098 85.222L86.573 9.08496Z" fill="#325597"/>
<path d="M57.756 34.073C61.5288 34.0724 65.185 35.3805 68.1011 37.7743C71.0172 40.1682 73.0126 43.4994 73.747 47.2C85.557 48.547 84.298 66.933 72.425 66.672H41.456C38.711 66.6735 36.0574 65.6854 33.9819 63.8889C31.9064 62.0924 30.5481 59.6079 30.156 56.8911H47.972C48.4043 56.8911 48.8189 56.7193 49.1246 56.4136C49.4303 56.108 49.602 55.6933 49.602 55.261C49.602 54.8287 49.4303 54.4141 49.1246 54.1085C48.8189 53.8028 48.4043 53.631 47.972 53.631H30.16C30.5839 50.688 32.1401 48.0267 34.4971 46.2139C36.8541 44.4012 39.8257 43.5803 42.779 43.926C44.0394 40.9997 46.1297 38.5067 48.7914 36.7553C51.4532 35.0038 54.5697 34.0707 57.756 34.071" fill="white"/>
<path d="M38.2 60.1531C37.7776 60.1679 37.3774 60.3461 37.0838 60.6501C36.7902 60.9542 36.6261 61.3604 36.6261 61.7831C36.6261 62.2057 36.7902 62.6119 37.0838 62.916C37.3774 63.2201 37.7776 63.3983 38.2 63.4131C39.034 62.6851 70.9 65.2061 69.171 61.7841C71.029 58.3771 38.888 60.8691 38.2 60.1531Z" fill="#19C4FF"/>
<path d="M62.665 40.6898C62.6575 40.4759 62.5673 40.2732 62.4133 40.1244C62.2593 39.9757 62.0536 39.8926 61.8395 39.8926C61.6254 39.8926 61.4197 39.9757 61.2657 40.1244C61.1117 40.2732 61.0214 40.4759 61.014 40.6898C61.382 41.1118 60.105 57.2549 61.839 56.3799C63.565 57.3219 62.302 41.0388 62.665 40.6898Z" fill="#19C4FF"/>
<path d="M58.786 50.1151C58.545 49.7631 57.198 50.8051 57.486 51.1281L61.147 55.8431C61.388 56.1961 62.735 55.1541 62.447 54.8311L58.786 50.1151Z" fill="#19C4FF"/>
<path d="M65.811 51.145C66.073 50.808 64.667 49.845 64.447 50.214L61.082 55.145C60.82 55.482 62.226 56.445 62.446 56.076L65.811 51.145Z" fill="#19C4FF"/>
<path d="M30.045 71.5631C28.186 68.1571 60.327 70.6491 61.015 69.9321C61.4475 69.9324 61.8621 70.1043 62.168 70.4101C62.4738 70.7159 62.6457 71.1306 62.646 71.5631C64.504 74.9691 32.363 72.4771 31.675 73.1941C31.2427 73.1936 30.8282 73.0215 30.5226 72.7158C30.217 72.41 30.0452 71.9954 30.045 71.5631Z" fill="white"/>
</svg>
