<svg width="70" height="70" viewBox="0 0 70 70" fill="none" xmlns="http://www.w3.org/2000/svg">
<path d="M70 34.7301C69.22 80.4151 1.264 80.4081 0.490997 34.7301C1.271 -10.9539 69.226 -10.9469 70 34.7301Z" fill="#1A428A"/>
<path d="M54.247 5.64502C56.0677 6.78698 57.7578 8.12496 59.287 9.63502L30.065 69.4C25.1062 68.5069 20.3855 66.5985 16.1991 63.7948C12.0126 60.991 8.45077 57.3523 5.737 53.107L54.247 5.64502Z" fill="#325597"/>
<path d="M15.609 36.0389C16.536 36.0879 18.527 35.6899 18.499 37.1719V46.2349C18.529 47.7079 16.533 47.3289 15.609 47.3679" stroke="white" stroke-width="3" stroke-miterlimit="10"/>
<path d="M20.657 37L30.83 31.805C31.1307 31.6517 31.4794 31.6222 31.8016 31.7227C32.1238 31.8233 32.3938 32.0459 32.554 32.343C33.093 33.143 33.592 34.388 32.498 34.972C30.731 35.949 27.498 37.832 27.147 38.693C26.667 39.885 28.59 43.25 34.118 43.25C39.646 43.25 46.378 36.76 46.858 36.76C55.288 40.566 33.524 53.449 18.499 45.403" stroke="white" stroke-width="3" stroke-miterlimit="10"/>
<path d="M32.2 31.9279C35.633 27.7279 47.061 30.2549 46.862 36.7609C42.419 39.6609 40.38 42.4659 34.123 43.2509C31.369 43.2139 27.112 42.2879 27.123 38.7709C28.65 36.0849 35.716 35.3879 32.198 31.9279" fill="white"/>
<path d="M43.013 23.0591C43.104 29.2971 33.306 29.2971 33.398 23.0591C33.307 16.8211 43.105 16.8211 43.013 23.0591Z" fill="#19C4FF"/>
</svg>
