<svg width="70" height="70" viewBox="0 0 70 70" fill="none" xmlns="http://www.w3.org/2000/svg">
<path d="M69.915 34.7301C69.135 80.4151 1.17901 80.4081 0.406006 34.7301C1.18601 -10.9539 69.141 -10.9469 69.915 34.7301Z" fill="#1A428A"/>
<path d="M54.165 5.64502C55.9857 6.78698 57.6757 8.12496 59.205 9.63502L29.983 69.4C25.0242 68.5069 20.3035 66.5985 16.1171 63.7948C11.9306 60.991 8.36877 57.3523 5.655 53.107L54.165 5.64502Z" fill="#325597"/>
<path d="M44.68 29.6201C45.613 28.7131 44.167 27.2631 43.258 28.1991L29.921 41.5391L23.607 35.2231C22.701 34.2901 21.249 35.7351 22.186 36.6441L29.21 43.6681C30.146 45.8111 43.926 29.6771 44.68 29.6201Z" fill="#1AC7FF"/>
<path d="M36.234 43.6681L34.434 41.8681L35.853 40.4491L36.942 41.5391C37.592 41.5251 51.024 25.8901 51.701 28.1981C53.854 29.1121 37.701 42.9321 37.654 43.6681C37.561 43.7621 37.4503 43.8368 37.3282 43.8877C37.2062 43.9387 37.0752 43.9649 36.943 43.9649C36.8107 43.9649 36.6798 43.9387 36.5578 43.8877C36.4357 43.8368 36.325 43.7621 36.232 43.6681" fill="white"/>
<path d="M30.631 35.223L32.431 37.023L31.012 38.442L29.212 36.642C28.277 35.734 29.725 34.286 30.633 35.221" fill="white"/>
</svg>
