<svg width="71" height="70" viewBox="0 0 71 70" fill="none" xmlns="http://www.w3.org/2000/svg">
<path d="M70.4 34.7301C69.62 80.4151 1.66399 80.4081 0.890991 34.7301C1.67099 -10.9539 69.626 -10.9469 70.4 34.7301Z" fill="#1A428A"/>
<path d="M54.652 5.64502C56.4726 6.78698 58.1628 8.12496 59.692 9.63502L30.47 69.4C25.5112 68.5069 20.7905 66.5985 16.6041 63.7948C12.4176 60.991 8.8558 57.3523 6.14203 53.107L54.652 5.64502Z" fill="#325597"/>
<path d="M44.572 22.8651C41.221 17.3391 23.817 8.80105 26.817 26.199C30.284 36.299 44.017 24.4451 44.572 22.8651Z" fill="white"/>
<path d="M35.266 33.05C35.266 33.05 30.923 38.615 36.173 44.915C28.173 45.24 20.867 45.487 21.893 34.994C21.8933 34.4784 22.0983 33.9839 22.463 33.6194C22.8277 33.2548 23.3223 33.05 23.838 33.05H35.266Z" fill="white"/>
<path d="M52.237 38.6151C52.398 49.6501 35.065 49.6501 35.227 38.6151C35.066 27.5801 52.4 27.5801 52.237 38.6151Z" stroke="white" stroke-width="3" stroke-miterlimit="10"/>
<path d="M41.737 36.2L43.417 33.26L45.148 36.2L48.772 36.305L46.042 39.035L46.882 43.025L43.312 40.085L39.679 42.71L41 39.035L38.48 36.305L41.737 36.2Z" fill="#19C4FC"/>
</svg>
