<svg width="70" height="70" viewBox="0 0 70 70" fill="none" xmlns="http://www.w3.org/2000/svg">
<path d="M69.937 34.7301C69.157 80.4151 1.20098 80.4081 0.427979 34.7301C1.20798 -10.9539 69.163 -10.9469 69.937 34.7301Z" fill="#1A428A"/>
<path d="M54.188 5.64502C56.0087 6.78698 57.6988 8.12496 59.228 9.63502L30.006 69.4C25.0472 68.5069 20.3265 66.5985 16.1401 63.7948C11.9536 60.991 8.39175 57.3523 5.67798 53.107L54.188 5.64502Z" fill="#325597"/>
<path d="M34.977 28.7451C34.6709 28.7722 34.3626 28.7356 34.0714 28.6375C33.7802 28.5394 33.5126 28.3821 33.2853 28.1754C33.058 27.9686 32.876 27.717 32.7508 27.4364C32.6256 27.1559 32.56 26.8524 32.558 26.5451C33.013 24.5931 31.088 17.2531 34.758 17.4061C35.0641 17.379 35.3725 17.4157 35.6637 17.5137C35.9549 17.6118 36.2227 17.7691 36.4501 17.9758C36.6775 18.1825 36.8595 18.4341 36.9848 18.7147C37.1101 18.9953 37.1759 19.2988 37.178 19.6061C36.722 21.5581 38.647 28.8981 34.978 28.7451" fill="#19C4FC"/>
<path d="M38.64 30.037C38.4078 29.8357 38.2198 29.5885 38.0879 29.311C37.956 29.0334 37.8831 28.7316 37.8737 28.4244C37.8643 28.1173 37.9186 27.8115 38.0333 27.5264C38.148 27.2413 38.3205 26.9831 38.54 26.768C40.259 25.738 44.195 19.249 46.64 21.993C46.8724 22.1942 47.0605 22.4414 47.1924 22.7189C47.3244 22.9965 47.3974 23.2984 47.4068 23.6056C47.4162 23.9128 47.3618 24.2186 47.247 24.5037C47.1322 24.7888 46.9596 25.047 46.74 25.262C45.021 26.292 41.086 32.781 38.64 30.037Z" fill="#19C4FC"/>
<path d="M40.327 33.8001C40.3049 33.4936 40.3465 33.1858 40.4493 32.8961C40.5522 32.6065 40.714 32.3414 40.9245 32.1174C41.135 31.8935 41.3896 31.7156 41.6723 31.5951C41.9551 31.4746 42.2597 31.414 42.567 31.4171C44.511 31.9041 51.882 30.0991 51.667 33.7661C51.689 34.0726 51.6472 34.3803 51.5443 34.6699C51.4414 34.9594 51.2796 35.2245 51.0691 35.4484C50.8587 35.6723 50.6041 35.8502 50.3215 35.9708C50.0388 36.0914 49.7343 36.1521 49.427 36.1491C47.483 35.6621 40.112 37.4671 40.327 33.8001Z" fill="white"/>
<path d="M38.7 37.474C38.894 37.2357 39.1353 37.0402 39.4086 36.8998C39.682 36.7594 39.9814 36.6773 40.2881 36.6585C40.5948 36.6397 40.9022 36.6847 41.1906 36.7906C41.479 36.8966 41.7423 37.0612 41.964 37.274C43.048 38.96 49.656 42.691 46.989 45.218C46.7951 45.4565 46.5539 45.6521 46.2805 45.7926C46.0071 45.933 45.7076 46.0153 45.4009 46.0341C45.0941 46.0529 44.7868 46.0078 44.4983 45.9018C44.2099 45.7958 43.9465 45.631 43.725 45.418C42.642 43.732 36.034 40.001 38.7 37.474Z" fill="white"/>
<path d="M35.061 38.8239C35.3675 38.8018 35.6753 38.8434 35.965 38.9463C36.2546 39.0491 36.5197 39.2109 36.7436 39.4214C36.9676 39.6319 37.1454 39.8865 37.266 40.1692C37.3865 40.4519 37.4471 40.7566 37.444 41.0639C36.957 43.0079 38.762 50.3789 35.095 50.1639C34.7884 50.186 34.4806 50.1444 34.191 50.0415C33.9014 49.9387 33.6363 49.7769 33.4123 49.5664C33.1884 49.3559 33.0105 49.1013 32.89 48.8186C32.7695 48.5358 32.7088 48.2312 32.712 47.9239C33.199 45.9799 31.394 38.6089 35.061 38.8239Z" fill="white"/>
<path d="M31.306 37.533C31.5382 37.7343 31.7262 37.9815 31.8581 38.2591C31.99 38.5366 32.0629 38.8385 32.0723 39.1456C32.0817 39.4528 32.0273 39.7585 31.9127 40.0436C31.798 40.3287 31.6255 40.587 31.406 40.802C29.687 41.832 25.751 48.321 23.306 45.577C23.0737 45.3759 22.8856 45.1287 22.7536 44.8511C22.6216 44.5736 22.5486 44.2717 22.5392 43.9645C22.5298 43.6573 22.5842 43.3515 22.699 43.0664C22.8137 42.7813 22.9864 42.523 23.206 42.308C24.925 41.278 28.86 34.789 31.306 37.533Z" fill="white"/>
<path d="M29.829 33.7681C29.8511 34.0746 29.8095 34.3824 29.7066 34.672C29.6038 34.9616 29.442 35.2268 29.2315 35.4507C29.021 35.6747 28.7664 35.8525 28.4837 35.9731C28.201 36.0936 27.8963 36.1542 27.589 36.1511C25.645 35.6641 18.274 37.4691 18.489 33.8021C18.4671 33.4956 18.5088 33.1878 18.6117 32.8983C18.7146 32.6087 18.8764 32.3436 19.0869 32.1197C19.2973 31.8958 19.5519 31.718 19.8346 31.5974C20.1172 31.4768 20.4217 31.4161 20.729 31.4191C22.673 31.9061 30.044 30.1011 29.829 33.7681Z" fill="white"/>
<path d="M30.91 30.013C30.7087 30.2452 30.4615 30.4331 30.184 30.565C29.9064 30.6969 29.6046 30.7699 29.2974 30.7793C28.9903 30.7887 28.6845 30.7343 28.3994 30.6196C28.1143 30.5049 27.8561 30.3324 27.641 30.113C26.611 28.394 20.122 24.458 22.866 22.013C23.0672 21.7806 23.3144 21.5925 23.5919 21.4605C23.8695 21.3286 24.1714 21.2556 24.4786 21.2462C24.7858 21.2368 25.0916 21.2912 25.3767 21.4059C25.6618 21.5207 25.92 21.6933 26.135 21.913C27.165 23.632 33.654 27.567 30.91 30.013Z" fill="white"/>
</svg>
