<svg width="112" height="110" viewBox="0 0 112 110" fill="none" xmlns="http://www.w3.org/2000/svg">
<path d="M111.795 54.8273C110.546 127.935 1.80001 127.927 0.562012 54.8273C1.81001 -18.2788 110.562 -18.2727 111.795 54.8273Z" fill="#1A428A"/>
<path d="M86.591 8.28223C86.591 8.28223 91.983 11.6712 94.656 14.6672L46.556 109.551C46.556 109.551 23.347 107.197 8.965 84.2302L86.591 8.28223Z" fill="#325597"/>
<path d="M32.673 43.9563C36.909 43.4163 48.987 39.7733 53.249 40.3293C55.842 41.7913 53.974 44.5943 49.649 46.1163C46.949 47.0263 45.179 48.5163 44.949 49.3743C44.719 50.2323 51.923 68.7523 51.923 68.7523C51.004 68.4743 45.041 70.5233 44.492 71.5403L32.673 43.9563Z" fill="white"/>
<path d="M32.673 43.9562C36.063 43.7882 54.718 37.1782 54.473 42.1092C54.056 44.9382 50.373 45.6782 48.268 46.7092C46.955 47.3492 43.784 48.9092 45.286 50.7902C52.752 58.4252 63.228 49.9992 71.812 49.3262C74.626 49.0442 78.812 48.5902 81.012 50.7902C81.012 50.7902 88.885 76.5102 88.893 76.5352C75.499 65.1352 57.293 95.6622 51.853 68.9162C49.1748 68.9375 46.5824 69.8636 44.497 71.5442L32.673 43.9562Z" stroke="white" stroke-width="0.75" stroke-miterlimit="10"/>
<path d="M66.711 75.1892C70.217 73.1832 78.272 69.5712 84.498 70.9892L83.263 66.0482C81.363 64.9982 70.163 66.7082 64.982 69.2602L66.711 75.1892Z" fill="#19C4FF"/>
<path d="M72.719 49.4994C72.85 58.4924 58.725 58.4924 58.857 49.4994C58.726 40.5074 72.851 40.5074 72.719 49.4994Z" fill="white"/>
<path d="M71.949 49.4993C72.066 57.4923 59.509 57.4933 59.627 49.4993C59.51 41.5073 72.067 41.5063 71.949 49.4993Z" fill="#19C4FF"/>
</svg>
