<?xml version="1.0" encoding="UTF-8"?>
<svg id="Layer_1" data-name="Layer 1" xmlns="http://www.w3.org/2000/svg" xmlns:xlink="http://www.w3.org/1999/xlink" viewBox="0 0 281.87 145.53">
  <defs>
    <style>
      .cls-1 {
        fill: url(#linear-gradient);
      }

      .cls-1, .cls-2, .cls-3, .cls-4, .cls-5, .cls-6, .cls-7, .cls-8, .cls-9, .cls-10 {
        stroke-width: 0px;
      }

      .cls-2 {
        fill: #1e4489;
      }

      .cls-3 {
        fill: #0b80c1;
      }

      .cls-4 {
        fill: #154e94;
      }

      .cls-5 {
        fill: url(#linear-gradient-2);
      }

      .cls-6 {
        fill: #1f69b3;
      }

      .cls-7 {
        fill: #12579d;
      }

      .cls-8 {
        fill: #3c8fcd;
      }

      .cls-9 {
        fill: #0d6cb0;
      }

      .cls-10 {
        fill: #159cd8;
      }
    </style>
    <linearGradient id="linear-gradient" x1="172.13" y1="102.11" x2="197.74" y2="102.11" gradientUnits="userSpaceOnUse">
      <stop offset="0" stop-color="#191b4d"/>
      <stop offset="1" stop-color="#055ba5"/>
    </linearGradient>
    <linearGradient id="linear-gradient-2" x1="210.49" y1="67.75" x2="211.1" y2="80.91" gradientUnits="userSpaceOnUse">
      <stop offset="0" stop-color="#191b4d"/>
      <stop offset="1" stop-color="#055ba5"/>
    </linearGradient>
  </defs>
  <path class="cls-8" d="m235.36,59.83h14.81v34.64c0,2.87,2.32,5.19,5.19,5.19h7.91v12.77h-12.77c-8.37,0-15.15-6.78-15.15-15.15v-37.45Z"/>
  <path class="cls-9" d="m169.83,59.83h14.81v34.64c0,2.87,2.32,5.19,5.19,5.19h7.91v12.77h-12.77c-8.37,0-15.15-6.78-15.15-15.15v-37.45Z"/>
  <path class="cls-3" d="m204.38,42.81h14.81v51.66c0,2.87,2.32,5.19,5.19,5.19h7.91v12.77h-12.77c-8.37,0-15.15-6.78-15.15-15.15v-54.47Z"/>
  <rect class="cls-3" x="192.13" y="58.81" width="37.11" height="12.43"/>
  <path class="cls-2" d="m42.68,43.51h14.81v51.66c0,2.87,2.32,5.19,5.19,5.19h7.91v12.77h-12.77c-8.37,0-15.15-6.78-15.15-15.15v-54.47Z"/>
  <rect class="cls-2" x="30.6" y="59.51" width="37.11" height="12.43"/>
  <polygon class="cls-6" points="169.83 42.81 169.83 56 183.02 42.81 169.83 42.81"/>
  <polygon class="cls-8" points="235.36 42.81 235.36 56 248.55 42.81 235.36 42.81"/>
  <path class="cls-7" d="m165.14,63.59c-1.44,3.7-2.89,7.39-4.33,11.09-6.5-4.02-14.99-4.4-19.91,2.17-4.07,5.42-4.16,14.08-.45,19.81,4.53,7.01,14.47,7.31,21.14,3.29,0,0,3.57,11.09,3.57,11.11.23.82-12.66,3.58-14.11,3.69-14.97,1.12-26.78-13.31-26.72-27.46.05-10.23,5.95-20.48,15.46-24.59,7.98-3.45,17.36-2.51,25.36.89Z"/>
  <path class="cls-4" d="m103.31,62.55c-13.02-4.09-26.04,3.57-26.04,3.57l4.34,8.43s8.94-4.43,16.09-2.21c7.15,2.21,5.87,9.36,5.87,9.36,0,0-26.3-4.85-28.09,15.32-1.79,20.17,28.85,19.15,40.6,13.28v-31.3s.26-12.36-12.77-16.45Zm.77,41.45s-16.68,2.47-16.68-7.49c0-9.7,16.68-7.49,16.68-7.49v14.98Z"/>
  <polygon class="cls-10" points="217.55 62.03 200.87 71.22 204.45 71.22 204.45 75.64 217.55 62.03"/>
  <path class="cls-10" d="m169.83,87.67v10.08s.08.82.19,1.69h0c.19,3.03,2.1,5.85,2.1,5.85l12.52-13.49v-13.49l-14.81,9.35Z"/>
  <path class="cls-1" d="m189.83,99.66c-2.87,0-5.19-2.32-5.19-5.19v-2.66l-12.51,13.48c2.68,4.29,7.42,7.15,12.85,7.15h12.77v-12.77h-7.91Z"/>
  <polygon class="cls-5" points="217.55 62.03 204.38 93.94 204.45 75.64 217.55 62.03"/>
</svg>